<svg xmlns="http://www.w3.org/2000/svg" width="32" height="32" viewBox="0 0 24 24">
    <g fill="none" stroke="#deb887" stroke-linecap="round" stroke-linejoin="round" stroke-width="1.5" color="#deb887">
        <path d="M9.092 16c-.31.682-1.022.986-1.653 1.316l-3.646 1.907C2.328 19.99 3.059 22 4.63 22c3.492 0 6.254-1.694 9.41-3c.795-.329 1.18-.259 1.96.091"/>
        <path d="M9 19.091c.78-.35 1.165-.42 1.96-.091c3.156 1.306 5.918 3 9.41 3c1.57 0 2.302-2.01.837-2.777l-3.646-1.907c-.631-.33-1.344-.634-1.653-1.316M10 4a2 2 0 1 0 4 0a2 2 0 0 0-4 0m2 4a6 6 0 0 0-6 6a6 6 0 0 0 6-6m0 0a6 6 0 0 1 6 6a6 6 0 0 1-6-6"/>
    </g>
</svg>